HIERARCHY
ROOT Hips
{
	OFFSET 0.00000 0.00000 0.00000
	CHANNELS 6 Xposition Yposition Zposition Zrotation Yrotation Xrotation 
	JOINT RightUpLegDummy
	{
		OFFSET 0 0 0
		CHANNELS 3 Zrotation Yrotation Xrotation
		JOINT RightUpLeg
		{
			OFFSET -3.52197 -3.41223 0.04002
			CHANNELS 3 Zrotation Yrotation Xrotation
			JOINT RightLeg
			{
				OFFSET 0.00006 -17.42390 1.60435
				CHANNELS 3 Zrotation Yrotation Xrotation
				JOINT RightFoot
				{
					OFFSET 0.06153 -16.50078 -1.63901
					CHANNELS 3 Zrotation Yrotation Xrotation
					JOINT RightToes
					{
						OFFSET 0.00298 -1.73825 3.34613
						CHANNELS 3 Zrotation Yrotation Xrotation
						End Site
						{
							OFFSET 0.00480 -0.05416 3.85043
						}
					}
				}
			}
		}
	}
	JOINT SpineDummy
	{
		OFFSET 0 0 0
		CHANNELS 3 Zrotation Yrotation Xrotation
		JOINT Spine
		{
			OFFSET 0.00000 4.68130 0.00000
			CHANNELS 3 Zrotation Yrotation Xrotation
			JOINT Spine1
			{
				OFFSET -0.00000 10.10138 0.05002
				CHANNELS 3 Zrotation Yrotation Xrotation
				JOINT HEadDummy
				{
					OFFSET 0 0 0
					CHANNELS 3 Zrotation Yrotation Xrotation
					JOINT Head
					{
						OFFSET -0.00000 3.43865 0.00438
						CHANNELS 3 Zrotation Yrotation Xrotation
						End Site
						{
							OFFSET -0.11417 5.02924 0.98962
						}
					}
				}
				JOINT LeftShoulder1Dummy
				{
					OFFSET 0 0 0
					CHANNELS 3 Zrotation Yrotation Xrotation
					JOINT LeftShoulder1
					{
						OFFSET 3.53937 -0.14262 -0.08662
						CHANNELS 3 Zrotation Yrotation Xrotation
						JOINT LeftArm
						{
							OFFSET 4.04833 -0.00133 0.12681
							CHANNELS 3 Zrotation Yrotation Xrotation
							JOINT LeftForeArm
							{
								OFFSET 10.33880 -0.01036 -0.55515
								CHANNELS 3 Zrotation Yrotation Xrotation
								JOINT LeftHand
								{
									OFFSET 8.69677 0.07543 0.40060
									CHANNELS 3 Zrotation Yrotation Xrotation
									End Site
									{
										OFFSET 5.28377 -0.21905 0.59205
									}
								}
							}
						}
					}
				}
				JOINT RightShoulderDummy
				{
					OFFSET 0 0 0
					CHANNELS 3 Zrotation Yrotation Xrotation
					JOINT RightShoulder
					{
						OFFSET -3.53937 -0.14262 -0.08660
						CHANNELS 3 Zrotation Yrotation Xrotation
						JOINT RightArm
						{
							OFFSET -4.04833 -0.00133 0.12683
							CHANNELS 3 Zrotation Yrotation Xrotation
							JOINT RightForeArm
							{
								OFFSET -10.37987 -0.01039 -0.55511
								CHANNELS 3 Zrotation Yrotation Xrotation
								JOINT RightHand
								{
									OFFSET -8.67398 0.07538 0.40058
									CHANNELS 3 Zrotation Yrotation Xrotation
									End Site
									{
										OFFSET -5.24810 -0.21916 0.59204
									}
								}
							}
						}
					}
				}
			}
		}
	}
	JOINT LeftUpLegDummy
	{
		OFFSET 0 0 0
		CHANNELS 3 Zrotation Yrotation Xrotation
		JOINT LeftUpLeg
		{
			OFFSET 3.52197 -3.41223 0.04002
			CHANNELS 3 Zrotation Yrotation Xrotation
			JOINT LeftLeg
			{
				OFFSET -0.00012 -17.42399 1.60337
				CHANNELS 3 Zrotation Yrotation Xrotation
				JOINT LeftFoot
				{
					OFFSET -0.09972 -16.50070 -1.63802
					CHANNELS 3 Zrotation Yrotation Xrotation
					JOINT LeftToes
					{
						OFFSET -0.01575 -1.73823 3.34611
						CHANNELS 3 Zrotation Yrotation Xrotation
						End Site
						{
							OFFSET 0.03150 -0.01868 3.85031
						}
					}
				}
			}
		}
	}
}
MOTION
Frames: 8
Frame Time: 0.033333
40.4187 39.8199 85.5155 -179.7390 -2.2516 177.2230 0.0000 0.0000 0.0000 2.1342 -1.4784 2.0671 -1.2935 -4.5493 4.6821 -2.7909 0.1465 -4.0799 0.0000 -0.0000 -0.0000 0.0000 0.0000 0.0000 2.3422 0.2196 2.2211 1.5447 -0.1536 0.2587 -0.0000 0.0000 -0.0000 -2.3067 7.9181 -6.0724 -0.0000 0.0000 -0.0000 -33.6709 -2.4044 2.3455 -45.4665 -15.0242 -20.3655 -9.0396 5.2216 45.3222 14.5693 -4.4602 -1.2029 -0.0000 0.0000 -0.0000 34.6296 5.1010 3.4976 39.3010 6.0474 -17.6705 10.4735 -1.6382 23.5215 -11.2902 -0.0986 -0.4978 0.0000 0.0000 0.0000 2.5056 2.4053 1.4640 0.2487 0.7987 5.7666 2.3810 -0.1118 -4.2916 0.0000 0.0000 -0.0000
40.4165 39.8199 85.5129 -179.6580 -2.2034 177.2690 0.0000 0.0000 0.0000 2.2376 -1.4012 2.0518 -1.3183 -4.5902 4.6047 -2.7753 0.1453 -4.0286 0.0000 -0.0000 -0.0000 0.0000 0.0000 0.0000 2.4741 0.2127 2.1402 1.4579 -0.1508 0.2686 -0.0000 0.0000 -0.0000 -2.3158 7.9724 -6.0025 -0.0000 0.0000 -0.0000 -33.6103 -2.3882 2.3355 -45.4938 -14.9444 -20.3047 -9.1002 5.2296 44.9998 14.7500 -4.3352 -1.2036 -0.0000 0.0000 -0.0000 34.7498 5.1252 3.5180 39.1865 6.1181 -17.7555 10.4361 -1.8256 23.8726 -10.9788 0.0861 -0.5084 0.0000 0.0000 0.0000 2.6005 2.4665 1.3792 0.2323 0.7920 5.8524 2.4232 -0.1145 -4.3353 0.0000 0.0000 -0.0000
40.4050 39.8199 85.5037 -179.6000 -2.2329 177.3270 0.0000 0.0000 0.0000 2.2884 -1.3649 2.0401 -1.3292 -4.6562 4.5274 -2.7186 0.1416 -3.9933 0.0000 -0.0000 -0.0000 0.0000 0.0000 0.0000 2.4420 0.1596 2.0321 1.6886 -0.2506 0.2494 -0.0000 0.0000 -0.0000 -2.4377 8.1672 -5.8644 -0.0000 0.0000 -0.0000 -33.9764 -2.3500 2.3421 -45.1567 -14.7210 -20.2548 -9.2155 5.2361 44.7112 14.6087 -4.5617 -1.2182 -0.0000 0.0000 -0.0000 34.5703 5.1111 3.4965 39.2515 6.2938 -17.8685 10.3739 -2.1155 24.2447 -10.7958 0.1734 -0.5145 0.0000 0.0000 0.0000 2.6543 2.5065 1.2990 0.2020 0.7341 5.9027 2.4733 -0.1177 -4.3657 0.0000 0.0000 -0.0000
40.3892 39.8199 85.4884 -179.6270 -2.3496 177.3710 0.0000 0.0000 0.0000 2.2222 -1.4136 2.0346 -1.3174 -4.7121 4.5120 -2.6639 0.1381 -4.0118 0.0000 -0.0000 -0.0000 0.0000 0.0000 0.0000 2.1648 0.1594 1.9370 2.1760 -0.3347 0.2067 -0.0000 0.0000 -0.0000 -2.4972 8.2925 -5.7069 -0.0000 0.0000 -0.0000 -34.5527 -2.3874 2.3914 -44.6624 -14.5447 -20.3311 -9.2407 5.2328 44.8239 14.3499 -4.9885 -1.2458 -0.0000 0.0000 -0.0000 34.2071 5.0571 3.4431 39.4768 6.2408 -17.8726 10.3582 -2.0673 24.1601 -11.0588 0.0256 -0.5141 0.0000 0.0000 0.0000 2.6101 2.4980 1.2923 0.1555 0.6376 5.8398 2.5266 -0.1211 -4.3464 0.0000 0.0000 -0.0000
40.3808 39.8199 85.4759 -179.6570 -2.3879 177.3670 0.0000 0.0000 0.0000 2.1760 -1.4417 2.0537 -1.3230 -4.7183 4.5363 -2.6616 0.1381 -4.0465 0.0000 -0.0000 -0.0000 0.0000 0.0000 0.0000 1.8879 0.2296 1.9137 2.5877 -0.3305 0.1966 -0.0000 0.0000 -0.0000 -2.3906 8.3343 -5.5702 -0.0000 0.0000 -0.0000 -34.9464 -2.4472 2.4394 -44.3283 -14.4995 -20.4563 -9.1853 5.2278 45.0335 14.4481 -5.1210 -1.2701 -0.0000 0.0000 -0.0000 33.8884 4.9904 3.3890 39.7554 6.0185 -17.8013 10.3591 -1.7480 24.0342 -11.4635 -0.0893 -0.5227 0.0000 0.0000 0.0000 2.5792 2.5033 1.3397 0.1161 0.5977 5.7905 2.5768 -0.1243 -4.3392 0.0000 0.0000 -0.0000
40.3773 39.8199 85.4712 -179.6510 -2.3280 177.3170 0.0000 0.0000 0.0000 2.1924 -1.4189 2.0945 -1.3508 -4.6854 4.5738 -2.6848 0.1396 -4.0749 0.0000 -0.0000 -0.0000 0.0000 0.0000 0.0000 1.8194 0.2798 1.9626 2.6617 -0.2903 0.2387 -0.0000 0.0000 -0.0000 -2.1216 8.4038 -5.4255 -0.0000 0.0000 -0.0000 -34.9249 -2.4404 2.4354 -44.3019 -14.5314 -20.4999 -9.1466 5.2279 45.0444 14.6273 -5.0675 -1.2803 -0.0000 0.0000 -0.0000 33.8085 4.9586 3.3694 39.9118 5.8771 -17.7960 10.3160 -1.5223 24.3272 -11.5165 0.1512 -0.5470 0.0000 0.0000 0.0000 2.5804 2.5049 1.3929 0.1317 0.6510 5.8267 2.5925 -0.1254 -4.3703 0.0000 0.0000 -0.0000
40.3625 39.8199 85.4627 -179.7080 -2.4036 177.3140 0.0000 0.0000 0.0000 2.0940 -1.4820 2.0892 -1.3426 -4.6905 4.6431 -2.6772 0.1393 -4.1359 0.0000 -0.0000 -0.0000 0.0000 0.0000 0.0000 1.7516 0.2047 1.9143 2.6416 -0.3639 0.3219 -0.0000 0.0000 -0.0000 -1.9015 8.5384 -5.2709 -0.0000 0.0000 -0.0000 -34.7892 -2.3780 2.4017 -44.3570 -14.5136 -20.4389 -9.1996 5.2317 44.8794 14.3495 -5.2646 -1.2776 -0.0000 0.0000 -0.0000 33.8090 4.9633 3.3714 39.9483 5.9234 -17.9139 10.2249 -1.6039 24.9235 -11.1526 0.7374 -0.5815 0.0000 0.0000 0.0000 2.4482 2.3786 1.4199 0.2199 0.7027 5.7897 2.5813 -0.1246 -4.3540 0.0000 0.0000 -0.0000
40.3312 39.8199 85.4360 -179.8920 -2.7475 177.4280 0.0000 0.0000 0.0000 1.7796 -1.7152 1.9803 -1.2629 -4.7784 4.7801 -2.6445 0.1376 -4.2724 0.0000 -0.0000 -0.0000 0.0000 0.0000 0.0000 1.3901 0.0186 1.6338 2.9229 -0.6019 0.4312 -0.0000 0.0000 -0.0000 -2.0217 8.6439 -5.2029 -0.0000 0.0000 -0.0000 -34.9449 -2.3340 2.3931 -44.2463 -14.3799 -20.3649 -9.3100 5.2360 44.6763 13.8600 -5.5587 -1.2654 -0.0000 0.0000 -0.0000 33.6157 4.9579 3.3527 40.0208 6.0740 -18.0984 10.1236 -1.9230 25.4904 -10.7610 1.3215 -0.6107 0.0000 0.0000 0.0000 2.1113 2.0934 1.4009 0.3407 0.6616 5.5786 2.5917 -0.1253 -4.2527 0.0000 0.0000 -0.0000
